horizon1994-large-corrected.ufo
<glyph name="exclam" format="2">
  <advance width="415"/>
  <unicode hex="0021"/>
  <outline>
    <contour>
      <point x="138.75" y="437" type="line"/>
      <point x="92.5" y="437" type="line"/>
      <point x="92.5" y="624.5" type="line"/>
      <point x="138.75" y="624.5" type="line"/>
      <point x="138.75" y="687" type="line"/>
      <point x="231.25" y="687" type="line"/>
      <point x="231.25" y="624.5" type="line"/>
      <point x="277.5" y="624.5" type="line"/>
      <point x="277.5" y="437" type="line"/>
      <point x="231.25" y="437" type="line"/>
      <point x="231.25" y="249.5" type="line"/>
      <point x="138.75" y="249.5" type="line"/>
    </contour>
    <contour>
      <point x="231.25" y="187" type="line"/>
      <point x="231.25" y="62" type="line"/>
      <point x="138.75" y="62" type="line"/>
      <point x="138.75" y="187" type="line"/>
    </contour>
  </outline>
</glyph>
<glyph name="quotesingle" format="2">
  <advance width="415"/>
  <unicode hex="0027"/>
  <outline>
    <contour>
      <point x="46.25" y="562" type="line"/>
      <point x="92.5" y="562" type="line"/>
      <point x="92.5" y="687" type="line"/>
      <point x="92.5" y="749.5" type="line"/>
      <point x="185" y="749.5" type="line"/>
      <point x="185" y="562" type="line"/>
      <point x="138.75" y="562" type="line"/>
      <point x="138.75" y="499.5" type="line"/>
      <point x="92.5" y="499.5" type="line"/>
      <point x="46.25" y="499.5" type="line"/>
    </contour>
  </outline>
</glyph>
<glyph name="parenleft" format="2">
  <advance width="415"/>
  <unicode hex="0028"/>
  <outline>
    <contour>
      <point x="185" y="124.5" type="line"/>
      <point x="138.75" y="124.5" type="line"/>
      <point x="138.75" y="187" type="line"/>
      <point x="92.5" y="187" type="line"/>
      <point x="92.5" y="562" type="line"/>
      <point x="138.75" y="562" type="line"/>
      <point x="138.75" y="624.5" type="line"/>
      <point x="185" y="624.5" type="line"/>
      <point x="185" y="687" type="line"/>
      <point x="277.5" y="687" type="line"/>
      <point x="277.5" y="624.5" type="line"/>
      <point x="231.25" y="624.5" type="line"/>
      <point x="231.25" y="562" type="line"/>
      <point x="185" y="562" type="line"/>
      <point x="185" y="437" type="line"/>
      <point x="185" y="312" type="line"/>
      <point x="185" y="187" type="line"/>
      <point x="231.25" y="187" type="line"/>
      <point x="231.25" y="124.5" type="line"/>
      <point x="277.5" y="124.5" type="line"/>
      <point x="277.5" y="62" type="line"/>
      <point x="185" y="62" type="line"/>
    </contour>
  </outline>
</glyph>
<glyph name="plus" format="2">
  <advance width="415"/>
  <unicode hex="002B"/>
  <outline>
    <contour>
      <point x="138.75" y="187" type="line"/>
      <point x="138.75" y="312" type="line"/>
      <point x="46.25" y="312" type="line"/>
      <point x="46.25" y="374.5" type="line"/>
      <point x="138.75" y="374.5" type="line"/>
      <point x="138.75" y="499.5" type="line"/>
      <point x="231.25" y="499.5" type="line"/>
      <point x="231.25" y="374.5" type="line"/>
      <point x="323.75" y="374.5" type="line"/>
      <point x="323.75" y="312" type="line"/>
      <point x="231.25" y="312" type="line"/>
      <point x="231.25" y="187" type="line"/>
    </contour>
  </outline>
</glyph>
<glyph name="comma" format="2">
  <advance width="415"/>
  <unicode hex="002C"/>
  <outline>
    <contour>
      <point x="138.75" y="249.5" type="line"/>
      <point x="231.25" y="249.5" type="line"/>
      <point x="231.25" y="62" type="line"/>
      <point x="185" y="62" type="line"/>
      <point x="185" y="-0.5" type="line"/>
      <point x="92.5" y="-0.5" type="line"/>
      <point x="92.5" y="62" type="line"/>
      <point x="138.75" y="62" type="line"/>
    </contour>
  </outline>
</glyph>
<glyph name="hyphen" format="2">
  <advance width="415"/>
  <unicode hex="002D"/>
  <outline>
    <contour>
      <point x="323.75" y="374.5" type="line"/>
      <point x="323.75" y="312" type="line"/>
      <point x="277.5" y="312" type="line"/>
      <point x="0" y="312" type="line"/>
      <point x="0" y="374.5" type="line"/>
      <point x="231.25" y="374.5" type="line"/>
    </contour>
  </outline>
</glyph>
<glyph name="period" format="2">
  <advance width="415"/>
  <unicode hex="002E"/>
  <outline>
    <contour>
      <point x="231.25" y="187" type="line"/>
      <point x="231.25" y="62" type="line"/>
      <point x="138.75" y="62" type="line"/>
      <point x="138.75" y="187" type="line"/>
    </contour>
  </outline>
</glyph>
<glyph name="seven" format="2">
  <advance width="415"/>
  <unicode hex="0037"/>
  <outline>
    <contour>
      <point x="231.25" y="624.5" type="line"/>
      <point x="92.5" y="624.5" type="line"/>
      <point x="92.5" y="562" type="line"/>
      <point x="0" y="562" type="line"/>
      <point x="0" y="687" type="line"/>
      <point x="323.75" y="687" type="line"/>
      <point x="323.75" y="437" type="line"/>
      <point x="277.5" y="437" type="line"/>
      <point x="277.5" y="374.5" type="line"/>
      <point x="231.25" y="374.5" type="line"/>
      <point x="231.25" y="312" type="line"/>
      <point x="185" y="312" type="line"/>
      <point x="185" y="187" type="line"/>
      <point x="185" y="62" type="line"/>
      <point x="92.5" y="62" type="line"/>
      <point x="92.5" y="249.5" type="line"/>
      <point x="92.5" y="312" type="line"/>
      <point x="138.75" y="312" type="line"/>
      <point x="138.75" y="374.5" type="line"/>
      <point x="185" y="374.5" type="line"/>
      <point x="185" y="437" type="line"/>
      <point x="231.25" y="437" type="line"/>
    </contour>
  </outline>
</glyph>
<glyph name="colon" format="2">
  <advance width="415"/>
  <unicode hex="003A"/>
  <outline>
    <contour>
      <point x="138.75" y="562" type="line"/>
      <point x="231.25" y="562" type="line"/>
      <point x="231.25" y="437" type="line"/>
      <point x="138.75" y="437" type="line"/>
    </contour>
    <contour>
      <point x="138.75" y="249.5" type="line"/>
      <point x="231.25" y="249.5" type="line"/>
      <point x="231.25" y="124.5" type="line"/>
      <point x="138.75" y="124.5" type="line"/>
    </contour>
  </outline>
</glyph>
<glyph name="semicolon" format="2">
  <advance width="415"/>
  <unicode hex="003B"/>
  <outline>
    <contour>
      <point x="138.75" y="187" type="line"/>
      <point x="138.75" y="249.5" type="line"/>
      <point x="231.25" y="249.5" type="line"/>
      <point x="231.25" y="124.5" type="line"/>
      <point x="185" y="124.5" type="line"/>
      <point x="185" y="62" type="line"/>
      <point x="92.5" y="62" type="line"/>
      <point x="92.5" y="124.5" type="line"/>
      <point x="138.75" y="124.5" type="line"/>
    </contour>
    <contour>
      <point x="138.75" y="562" type="line"/>
      <point x="231.25" y="562" type="line"/>
      <point x="231.25" y="437" type="line"/>
      <point x="138.75" y="437" type="line"/>
    </contour>
  </outline>
</glyph>
<glyph name="equal" format="2">
  <advance width="415"/>
  <unicode hex="003D"/>
  <outline>
    <contour>
      <point x="323.75" y="499.5" type="line"/>
      <point x="323.75" y="437" type="line"/>
      <point x="46.25" y="437" type="line"/>
      <point x="46.25" y="499.5" type="line"/>
    </contour>
    <contour>
      <point x="46.25" y="249.5" type="line"/>
      <point x="46.25" y="312" type="line"/>
      <point x="185" y="312" type="line"/>
      <point x="323.75" y="312" type="line"/>
      <point x="323.75" y="249.5" type="line"/>
      <point x="277.5" y="249.5" type="line"/>
    </contour>
  </outline>
</glyph>
<glyph name="H" format="2">
  <advance width="415"/>
  <unicode hex="0048"/>
  <outline>
    <contour>
      <point x="0" y="62" type="line"/>
      <point x="0" y="687" type="line"/>
      <point x="92.5" y="687" type="line"/>
      <point x="92.5" y="437" type="line"/>
      <point x="231.25" y="437" type="line"/>
      <point x="231.25" y="687" type="line"/>
      <point x="323.75" y="687" type="line"/>
      <point x="323.75" y="62" type="line"/>
      <point x="231.25" y="62" type="line"/>
      <point x="231.25" y="374.5" type="line"/>
      <point x="92.5" y="374.5" type="line"/>
      <point x="92.5" y="62" type="line"/>
    </contour>
  </outline>
</glyph>
<glyph name="J" format="2">
  <advance width="415"/>
  <unicode hex="004A"/>
  <outline>
    <contour>
      <point x="277.5" y="124.5" type="line"/>
      <point x="231.25" y="124.5" type="line"/>
      <point x="231.25" y="62" type="line"/>
      <point x="46.25" y="62" type="line"/>
      <point x="46.25" y="124.5" type="line"/>
      <point x="0" y="124.5" type="line"/>
      <point x="0" y="312" type="line"/>
      <point x="92.5" y="312" type="line"/>
      <point x="92.5" y="124.5" type="line"/>
      <point x="185" y="124.5" type="line"/>
      <point x="185" y="624.5" type="line"/>
      <point x="138.75" y="624.5" type="line"/>
      <point x="138.75" y="687" type="line"/>
      <point x="323.75" y="687" type="line"/>
      <point x="323.75" y="624.5" type="line"/>
      <point x="277.5" y="624.5" type="line"/>
    </contour>
  </outline>
</glyph>
<glyph name="L" format="2">
  <advance width="415"/>
  <unicode hex="004C"/>
  <outline>
    <contour>
      <point x="0" y="62" type="line"/>
      <point x="0" y="124.5" type="line"/>
      <point x="46.25" y="124.5" type="line"/>
      <point x="46.25" y="624.5" type="line"/>
      <point x="0" y="624.5" type="line"/>
      <point x="0" y="687" type="line"/>
      <point x="185" y="687" type="line"/>
      <point x="185" y="624.5" type="line"/>
      <point x="138.75" y="624.5" type="line"/>
      <point x="138.75" y="312" type="line"/>
      <point x="138.75" y="124.5" type="line"/>
      <point x="231.25" y="124.5" type="line"/>
      <point x="231.25" y="187" type="line"/>
      <point x="277.5" y="187" type="line"/>
      <point x="277.5" y="249.5" type="line"/>
      <point x="323.75" y="249.5" type="line"/>
      <point x="323.75" y="62" type="line"/>
      <point x="46.25" y="62" type="line"/>
    </contour>
  </outline>
</glyph>
<glyph name="M" format="2">
  <advance width="415"/>
  <unicode hex="004D"/>
  <outline>
    <contour>
      <point x="370" y="62" type="line"/>
      <point x="277.5" y="62" type="line"/>
      <point x="277.5" y="437" type="line"/>
      <point x="231.25" y="437" type="line"/>
      <point x="231.25" y="374.5" type="line"/>
      <point x="138.75" y="374.5" type="line"/>
      <point x="138.75" y="437" type="line"/>
      <point x="92.5" y="437" type="line"/>
      <point x="92.5" y="62" type="line"/>
      <point x="0" y="62" type="line"/>
      <point x="0" y="687" type="line"/>
      <point x="92.5" y="687" type="line"/>
      <point x="92.5" y="624.5" type="line"/>
      <point x="138.75" y="624.5" type="line"/>
      <point x="138.75" y="562" type="line"/>
      <point x="231.25" y="562" type="line"/>
      <point x="231.25" y="624.5" type="line"/>
      <point x="277.5" y="624.5" type="line"/>
      <point x="277.5" y="687" type="line"/>
      <point x="370" y="687" type="line"/>
    </contour>
  </outline>
</glyph>
<glyph name="P" format="2">
  <advance width="415"/>
  <unicode hex="0050"/>
  <outline>
    <contour>
      <point x="0" y="62" type="line"/>
      <point x="0" y="124.5" type="line"/>
      <point x="46.25" y="124.5" type="line"/>
      <point x="46.25" y="624.5" type="line"/>
      <point x="0" y="624.5" type="line"/>
      <point x="0" y="687" type="line"/>
      <point x="277.5" y="687" type="line"/>
      <point x="277.5" y="624.5" type="line"/>
      <point x="323.75" y="624.5" type="line"/>
      <point x="323.75" y="437" type="line"/>
      <point x="277.5" y="437" type="line"/>
      <point x="277.5" y="374.5" type="line"/>
      <point x="138.75" y="374.5" type="line"/>
      <point x="138.75" y="124.5" type="line"/>
      <point x="185" y="124.5" type="line"/>
      <point x="185" y="62" type="line"/>
    </contour>
    <contour>
      <point x="231.25" y="624.5" type="line"/>
      <point x="138.75" y="624.5" type="line"/>
      <point x="138.75" y="437" type="line"/>
      <point x="231.25" y="437" type="line"/>
    </contour>
  </outline>
</glyph>
<glyph name="Q" format="2">
  <advance width="415"/>
  <unicode hex="0051"/>
  <outline>
    <contour>
      <point x="46.25" y="62" type="line"/>
      <point x="46.25" y="124.5" type="line"/>
      <point x="0" y="124.5" type="line"/>
      <point x="0" y="624.5" type="line"/>
      <point x="46.25" y="624.5" type="line"/>
      <point x="46.25" y="687" type="line"/>
      <point x="185" y="687" type="line"/>
      <point x="277.5" y="687" type="line"/>
      <point x="277.5" y="624.5" type="line"/>
      <point x="323.75" y="624.5" type="line"/>
      <point x="323.75" y="124.5" type="line"/>
      <point x="277.5" y="124.5" type="line"/>
      <point x="277.5" y="-0.5" type="line"/>
      <point x="323.75" y="-0.5" type="line"/>
      <point x="323.75" y="-63" type="line"/>
      <point x="185" y="-63" type="line"/>
      <point x="185" y="62" type="line"/>
    </contour>
    <contour>
      <point x="138.75" y="124.5" type="line"/>
      <point x="138.75" y="249.5" type="line"/>
      <point x="185" y="249.5" type="line"/>
      <point x="185" y="187" type="line"/>
      <point x="231.25" y="187" type="line"/>
      <point x="231.25" y="624.5" type="line"/>
      <point x="92.5" y="624.5" type="line"/>
      <point x="92.5" y="124.5" type="line"/>
    </contour>
  </outline>
</glyph>
<glyph name="bracketleft" format="2">
  <advance width="415"/>
  <unicode hex="005B"/>
  <outline>
    <contour>
      <point x="185" y="624.5" type="line"/>
      <point x="185" y="124.5" type="line"/>
      <point x="277.5" y="124.5" type="line"/>
      <point x="277.5" y="62" type="line"/>
      <point x="92.5" y="62" type="line"/>
      <point x="92.5" y="187" type="line"/>
      <point x="92.5" y="687" type="line"/>
      <point x="277.5" y="687" type="line"/>
      <point x="277.5" y="624.5" type="line"/>
    </contour>
  </outline>
</glyph>
<glyph name="grave" format="2">
  <advance width="415"/>
  <unicode hex="0060"/>
  <outline>
    <contour>
      <point x="185" y="812" type="line"/>
      <point x="185" y="687" type="line"/>
      <point x="231.25" y="687" type="line"/>
      <point x="231.25" y="624.5" type="line"/>
      <point x="138.75" y="624.5" type="line"/>
      <point x="138.75" y="687" type="line"/>
      <point x="92.5" y="687" type="line"/>
      <point x="92.5" y="812" type="line"/>
    </contour>
  </outline>
</glyph>
<glyph name="h" format="2">
  <advance width="415"/>
  <unicode hex="0068"/>
  <outline>
    <contour>
      <point x="138.75" y="437" type="line"/>
      <point x="185" y="437" type="line"/>
      <point x="185" y="374.5" type="line"/>
      <point x="138.75" y="374.5" type="line"/>
      <point x="138.75" y="62" type="line"/>
      <point x="0" y="62" type="line"/>
      <point x="0" y="124.5" type="line"/>
      <point x="46.25" y="124.5" type="line"/>
      <point x="46.25" y="624.5" type="line"/>
      <point x="0" y="624.5" type="line"/>
      <point x="0" y="687" type="line"/>
      <point x="46.25" y="687" type="line"/>
      <point x="138.75" y="687" type="line"/>
    </contour>
    <contour>
      <point x="185" y="499.5" type="line"/>
      <point x="277.5" y="499.5" type="line"/>
      <point x="277.5" y="437" type="line"/>
      <point x="323.75" y="437" type="line"/>
      <point x="323.75" y="62" type="line"/>
      <point x="231.25" y="62" type="line"/>
      <point x="231.25" y="437" type="line"/>
      <point x="185" y="437" type="line"/>
    </contour>
  </outline>
</glyph>
<glyph name="i" format="2">
  <advance width="415"/>
  <unicode hex="0069"/>
  <outline>
    <contour>
      <point x="138.75" y="374.5" type="line"/>
      <point x="138.75" y="437" type="line"/>
      <point x="92.5" y="437" type="line"/>
      <point x="92.5" y="499.5" type="line"/>
      <point x="231.25" y="499.5" type="line"/>
      <point x="231.25" y="312" type="line"/>
      <point x="231.25" y="124.5" type="line"/>
      <point x="277.5" y="124.5" type="line"/>
      <point x="277.5" y="62" type="line"/>
      <point x="92.5" y="62" type="line"/>
      <point x="92.5" y="124.5" type="line"/>
      <point x="138.75" y="124.5" type="line"/>
    </contour>
    <contour>
      <point x="138.75" y="687" type="line"/>
      <point x="231.25" y="687" type="line"/>
      <point x="231.25" y="562" type="line"/>
      <point x="138.75" y="562" type="line"/>
    </contour>
  </outline>
</glyph>
<glyph name="j" format="2">
  <advance width="415"/>
  <unicode hex="006A"/>
  <outline>
    <contour>
      <point x="323.75" y="-63" type="line"/>
      <point x="277.5" y="-63" type="line"/>
      <point x="277.5" y="-125.5" type="line"/>
      <point x="92.5" y="-125.5" type="line"/>
      <point x="92.5" y="-63" type="line"/>
      <point x="46.25" y="-63" type="line"/>
      <point x="46.25" y="62" type="line"/>
      <point x="138.75" y="62" type="line"/>
      <point x="138.75" y="-63" type="line"/>
      <point x="231.25" y="-63" type="line"/>
      <point x="231.25" y="437" type="line"/>
      <point x="185" y="437" type="line"/>
      <point x="185" y="499.5" type="line"/>
      <point x="323.75" y="499.5" type="line"/>
    </contour>
    <contour>
      <point x="231.25" y="687" type="line"/>
      <point x="323.75" y="687" type="line"/>
      <point x="323.75" y="562" type="line"/>
      <point x="231.25" y="562" type="line"/>
    </contour>
  </outline>
</glyph>
<glyph name="p" format="2">
  <advance width="415"/>
  <unicode hex="0070"/>
  <outline>
    <contour>
      <point x="0" y="-125.5" type="line"/>
      <point x="0" y="-63" type="line"/>
      <point x="46.25" y="-63" type="line"/>
      <point x="46.25" y="374.5" type="line"/>
      <point x="46.25" y="437" type="line"/>
      <point x="0" y="437" type="line"/>
      <point x="0" y="499.5" type="line"/>
      <point x="92.5" y="499.5" type="line"/>
      <point x="92.5" y="437" type="line"/>
      <point x="138.75" y="437" type="line"/>
      <point x="138.75" y="499.5" type="line"/>
      <point x="277.5" y="499.5" type="line"/>
      <point x="277.5" y="437" type="line"/>
      <point x="323.75" y="437" type="line"/>
      <point x="323.75" y="312" type="line"/>
      <point x="323.75" y="249.5" type="line"/>
      <point x="323.75" y="124.5" type="line"/>
      <point x="277.5" y="124.5" type="line"/>
      <point x="277.5" y="62" type="line"/>
      <point x="138.75" y="62" type="line"/>
      <point x="138.75" y="-63" type="line"/>
      <point x="185" y="-63" type="line"/>
      <point x="185" y="-125.5" type="line"/>
      <point x="138.75" y="-125.5" type="line"/>
    </contour>
    <contour>
      <point x="231.25" y="437" type="line"/>
      <point x="138.75" y="437" type="line"/>
      <point x="138.75" y="124.5" type="line"/>
      <point x="231.25" y="124.5" type="line"/>
    </contour>
  </outline>
</glyph>
<glyph name="r" format="2">
  <advance width="415"/>
  <unicode hex="0072"/>
  <outline>
    <contour>
      <point x="0" y="62" type="line"/>
      <point x="0" y="124.5" type="line"/>
      <point x="46.25" y="124.5" type="line"/>
      <point x="46.25" y="437" type="line"/>
      <point x="0" y="437" type="line"/>
      <point x="0" y="499.5" type="line"/>
      <point x="92.5" y="499.5" type="line"/>
      <point x="92.5" y="437" type="line"/>
      <point x="138.75" y="437" type="line"/>
      <point x="138.75" y="499.5" type="line"/>
      <point x="277.5" y="499.5" type="line"/>
      <point x="277.5" y="437" type="line"/>
      <point x="323.75" y="437" type="line"/>
      <point x="323.75" y="312" type="line"/>
      <point x="231.25" y="312" type="line"/>
      <point x="231.25" y="437" type="line"/>
      <point x="185" y="437" type="line"/>
      <point x="185" y="374.5" type="line"/>
      <point x="138.75" y="374.5" type="line"/>
      <point x="138.75" y="124.5" type="line"/>
      <point x="185" y="124.5" type="line"/>
      <point x="185" y="62" type="line"/>
    </contour>
  </outline>
</glyph>
<glyph name="w" format="2">
  <advance width="415"/>
  <unicode hex="0077"/>
  <outline>
    <contour>
      <point x="138.75" y="187" type="line"/>
      <point x="138.75" y="312" type="line"/>
      <point x="231.25" y="312" type="line"/>
      <point x="231.25" y="187" type="line"/>
      <point x="277.5" y="187" type="line"/>
      <point x="277.5" y="499.5" type="line"/>
      <point x="370" y="499.5" type="line"/>
      <point x="370" y="124.5" type="line"/>
      <point x="323.75" y="124.5" type="line"/>
      <point x="323.75" y="62" type="line"/>
      <point x="231.25" y="62" type="line"/>
      <point x="231.25" y="124.5" type="line"/>
      <point x="138.75" y="124.5" type="line"/>
      <point x="138.75" y="62" type="line"/>
      <point x="46.25" y="62" type="line"/>
      <point x="46.25" y="124.5" type="line"/>
      <point x="0" y="124.5" type="line"/>
      <point x="0" y="187" type="line"/>
      <point x="0" y="499.5" type="line"/>
      <point x="92.5" y="499.5" type="line"/>
      <point x="92.5" y="187" type="line"/>
    </contour>
  </outline>
</glyph>
<glyph name="y" format="2">
  <advance width="415"/>
  <unicode hex="0079"/>
  <outline>
    <contour>
      <point x="92.5" y="-125.5" type="line"/>
      <point x="0" y="-125.5" type="line"/>
      <point x="0" y="-63" type="line"/>
      <point x="138.75" y="-63" type="line"/>
      <point x="185" y="-63" type="line"/>
      <point x="185" y="-0.5" type="line"/>
      <point x="231.25" y="-0.5" type="line"/>
      <point x="231.25" y="62" type="line"/>
      <point x="138.75" y="62" type="line"/>
      <point x="46.25" y="62" type="line"/>
      <point x="46.25" y="124.5" type="line"/>
      <point x="0" y="124.5" type="line"/>
      <point x="0" y="499.5" type="line"/>
      <point x="92.5" y="499.5" type="line"/>
      <point x="92.5" y="124.5" type="line"/>
      <point x="185" y="124.5" type="line"/>
      <point x="231.25" y="124.5" type="line"/>
      <point x="231.25" y="249.5" type="line"/>
      <point x="231.25" y="312" type="line"/>
      <point x="231.25" y="499.5" type="line"/>
      <point x="323.75" y="499.5" type="line"/>
      <point x="323.75" y="312" type="line"/>
      <point x="323.75" y="-0.5" type="line"/>
      <point x="277.5" y="-0.5" type="line"/>
      <point x="277.5" y="-63" type="line"/>
      <point x="231.25" y="-63" type="line"/>
      <point x="231.25" y="-125.5" type="line"/>
    </contour>
  </outline>
</glyph>
<glyph name="braceleft" format="2">
  <advance width="415"/>
  <unicode hex="007B"/>
  <outline>
    <contour>
      <point x="138.75" y="374.5" type="line"/>
      <point x="46.25" y="374.5" type="line"/>
      <point x="46.25" y="437" type="line"/>
      <point x="138.75" y="437" type="line"/>
      <point x="138.75" y="624.5" type="line"/>
      <point x="185" y="624.5" type="line"/>
      <point x="185" y="687" type="line"/>
      <point x="323.75" y="687" type="line"/>
      <point x="323.75" y="624.5" type="line"/>
      <point x="231.25" y="624.5" type="line"/>
      <point x="231.25" y="437" type="line"/>
      <point x="185" y="437" type="line"/>
      <point x="185" y="374.5" type="line"/>
      <point x="231.25" y="374.5" type="line"/>
      <point x="231.25" y="312" type="line"/>
      <point x="231.25" y="124.5" type="line"/>
      <point x="323.75" y="124.5" type="line"/>
      <point x="323.75" y="62" type="line"/>
      <point x="185" y="62" type="line"/>
      <point x="185" y="124.5" type="line"/>
      <point x="138.75" y="124.5" type="line"/>
    </contour>
  </outline>
</glyph>
<glyph name="bar" format="2">
  <advance width="415"/>
  <unicode hex="007C"/>
  <outline>
    <contour>
      <point x="138.75" y="374.5" type="line"/>
      <point x="231.25" y="374.5" type="line"/>
      <point x="231.25" y="62" type="line"/>
      <point x="138.75" y="62" type="line"/>
    </contour>
    <contour>
      <point x="138.75" y="687" type="line"/>
      <point x="231.25" y="687" type="line"/>
      <point x="231.25" y="437" type="line"/>
      <point x="138.75" y="437" type="line"/>
    </contour>
  </outline>
</glyph>
<glyph name="braceright" format="2">
  <advance width="415"/>
  <unicode hex="007D"/>
  <outline>
    <contour>
      <point x="138.75" y="374.5" type="line"/>
      <point x="185" y="374.5" type="line"/>
      <point x="185" y="437" type="line"/>
      <point x="138.75" y="437" type="line"/>
      <point x="138.75" y="624.5" type="line"/>
      <point x="46.25" y="624.5" type="line"/>
      <point x="46.25" y="687" type="line"/>
      <point x="185" y="687" type="line"/>
      <point x="185" y="624.5" type="line"/>
      <point x="231.25" y="624.5" type="line"/>
      <point x="231.25" y="437" type="line"/>
      <point x="323.75" y="437" type="line"/>
      <point x="323.75" y="374.5" type="line"/>
      <point x="231.25" y="374.5" type="line"/>
      <point x="231.25" y="124.5" type="line"/>
      <point x="185" y="124.5" type="line"/>
      <point x="185" y="62" type="line"/>
      <point x="46.25" y="62" type="line"/>
      <point x="46.25" y="124.5" type="line"/>
      <point x="138.75" y="124.5" type="line"/>
    </contour>
  </outline>
</glyph>
<glyph name="asciitilde" format="2">
  <advance width="415"/>
  <unicode hex="007E"/>
  <outline>
    <contour>
      <point x="0" y="624.5" type="line"/>
      <point x="46.25" y="624.5" type="line"/>
      <point x="46.25" y="687" type="line"/>
      <point x="185" y="687" type="line"/>
      <point x="185" y="624.5" type="line"/>
      <point x="231.25" y="624.5" type="line"/>
      <point x="231.25" y="687" type="line"/>
      <point x="323.75" y="687" type="line"/>
      <point x="323.75" y="624.5" type="line"/>
      <point x="277.5" y="624.5" type="line"/>
      <point x="277.5" y="562" type="line"/>
      <point x="231.25" y="562" type="line"/>
      <point x="138.75" y="562" type="line"/>
      <point x="138.75" y="624.5" type="line"/>
      <point x="92.5" y="624.5" type="line"/>
      <point x="92.5" y="562" type="line"/>
      <point x="0" y="562" type="line"/>
    </contour>
  </outline>
</glyph>
<glyph name="logicalnot" format="2">
  <advance width="415"/>
  <unicode hex="00AC"/>
  <outline>
    <contour>
      <point x="323.75" y="124.5" type="line"/>
      <point x="231.25" y="124.5" type="line"/>
      <point x="231.25" y="374.5" type="line"/>
      <point x="0" y="374.5" type="line"/>
      <point x="0" y="437" type="line"/>
      <point x="277.5" y="437" type="line"/>
      <point x="323.75" y="437" type="line"/>
    </contour>
  </outline>
</glyph>
<glyph name="degree" format="2">
  <advance width="415"/>
  <unicode hex="00B0"/>
  <outline>
    <contour>
      <point x="231.25" y="562" type="line"/>
      <point x="231.25" y="499.5" type="line"/>
      <point x="92.5" y="499.5" type="line"/>
      <point x="92.5" y="562" type="line"/>
      <point x="46.25" y="562" type="line"/>
      <point x="46.25" y="687" type="line"/>
      <point x="92.5" y="687" type="line"/>
      <point x="92.5" y="749.5" type="line"/>
      <point x="185" y="749.5" type="line"/>
      <point x="231.25" y="749.5" type="line"/>
      <point x="231.25" y="687" type="line"/>
      <point x="277.5" y="687" type="line"/>
      <point x="277.5" y="562" type="line"/>
    </contour>
    <contour>
      <point x="138.75" y="624.5" type="line"/>
      <point x="138.75" y="562" type="line"/>
      <point x="185" y="562" type="line"/>
      <point x="185" y="624.5" type="line"/>
      <point x="185" y="687" type="line"/>
      <point x="138.75" y="687" type="line"/>
    </contour>
  </outline>
</glyph>
<glyph name="uni00B2" format="2">
  <advance width="415"/>
  <unicode hex="00B2"/>
  <outline>
    <contour>
      <point x="231.25" y="624.5" type="line"/>
      <point x="185" y="624.5" type="line"/>
      <point x="185" y="562" type="line"/>
      <point x="138.75" y="562" type="line"/>
      <point x="138.75" y="499.5" type="line"/>
      <point x="92.5" y="499.5" type="line"/>
      <point x="92.5" y="437" type="line"/>
      <point x="185" y="437" type="line"/>
      <point x="185" y="499.5" type="line"/>
      <point x="231.25" y="499.5" type="line"/>
      <point x="231.25" y="374.5" type="line"/>
      <point x="138.75" y="374.5" type="line"/>
      <point x="0" y="374.5" type="line"/>
      <point x="0" y="499.5" type="line"/>
      <point x="46.25" y="499.5" type="line"/>
      <point x="46.25" y="562" type="line"/>
      <point x="92.5" y="562" type="line"/>
      <point x="92.5" y="624.5" type="line"/>
      <point x="0" y="624.5" type="line"/>
      <point x="0" y="687" type="line"/>
      <point x="46.25" y="687" type="line"/>
      <point x="46.25" y="749.5" type="line"/>
      <point x="185" y="749.5" type="line"/>
      <point x="185" y="687" type="line"/>
      <point x="231.25" y="687" type="line"/>
    </contour>
    <contour>
      <point x="138.75" y="624.5" type="line"/>
      <point x="138.75" y="687" type="line"/>
      <point x="92.5" y="687" type="line"/>
      <point x="92.5" y="624.5" type="line"/>
    </contour>
  </outline>
</glyph>
<glyph name="mu" format="2">
  <advance width="415"/>
  <unicode hex="00B5"/>
  <outline>
    <contour>
      <point x="92.5" y="-0.5" type="line"/>
      <point x="0" y="-0.5" type="line"/>
      <point x="0" y="62" type="line"/>
      <point x="46.25" y="62" type="line"/>
      <point x="46.25" y="562" type="line"/>
      <point x="138.75" y="562" type="line"/>
      <point x="138.75" y="249.5" type="line"/>
      <point x="231.25" y="249.5" type="line"/>
      <point x="231.25" y="562" type="line"/>
      <point x="323.75" y="562" type="line"/>
      <point x="323.75" y="249.5" type="line"/>
      <point x="277.5" y="249.5" type="line"/>
      <point x="277.5" y="187" type="line"/>
      <point x="138.75" y="187" type="line"/>
      <point x="138.75" y="62" type="line"/>
      <point x="92.5" y="62" type="line"/>
    </contour>
  </outline>
</glyph>
<glyph name="paragraph" format="2">
  <advance width="415"/>
  <unicode hex="00B6"/>
  <outline>
    <contour>
      <point x="138.75" y="374.5" type="line"/>
      <point x="46.25" y="374.5" type="line"/>
      <point x="46.25" y="437" type="line"/>
      <point x="0" y="437" type="line"/>
      <point x="0" y="624.5" type="line"/>
      <point x="46.25" y="624.5" type="line"/>
      <point x="46.25" y="687" type="line"/>
      <point x="370" y="687" type="line"/>
      <point x="370" y="62" type="line"/>
      <point x="277.5" y="62" type="line"/>
      <point x="277.5" y="624.5" type="line"/>
      <point x="231.25" y="624.5" type="line"/>
      <point x="231.25" y="62" type="line"/>
      <point x="138.75" y="62" type="line"/>
    </contour>
    <contour>
      <point x="92.5" y="624.5" type="line"/>
      <point x="92.5" y="437" type="line"/>
      <point x="138.75" y="437" type="line"/>
      <point x="138.75" y="624.5" type="line"/>
    </contour>
  </outline>
</glyph>
<glyph name="periodcentered" format="2">
  <advance width="415"/>
  <unicode hex="00B7"/>
  <outline>
    <contour>
      <point x="185" y="249.5" type="line"/>
      <point x="138.75" y="249.5" type="line"/>
      <point x="138.75" y="312" type="line"/>
      <point x="185" y="312" type="line"/>
      <point x="231.25" y="312" type="line"/>
      <point x="231.25" y="249.5" type="line"/>
    </contour>
  </outline>
</glyph>
<glyph name="onequarter" format="2">
  <advance width="415"/>
  <unicode hex="00BC"/>
  <outline>
    <contour>
      <point x="323.75" y="312" type="line"/>
      <point x="323.75" y="-63" type="line"/>
      <point x="231.25" y="-63" type="line"/>
      <point x="231.25" y="62" type="line"/>
      <point x="92.5" y="62" type="line"/>
      <point x="92.5" y="124.5" type="line"/>
      <point x="138.75" y="124.5" type="line"/>
      <point x="138.75" y="187" type="line"/>
      <point x="185" y="187" type="line"/>
      <point x="185" y="124.5" type="line"/>
      <point x="231.25" y="124.5" type="line"/>
      <point x="231.25" y="187" type="line"/>
      <point x="185" y="187" type="line"/>
      <point x="185" y="249.5" type="line"/>
      <point x="231.25" y="249.5" type="line"/>
      <point x="231.25" y="312" type="line"/>
    </contour>
    <contour>
      <point x="138.75" y="249.5" type="line"/>
      <point x="92.5" y="249.5" type="line"/>
      <point x="92.5" y="187" type="line"/>
      <point x="46.25" y="187" type="line"/>
      <point x="46.25" y="124.5" type="line"/>
      <point x="0" y="124.5" type="line"/>
      <point x="0" y="187" type="line"/>
      <point x="0" y="249.5" type="line"/>
      <point x="46.25" y="249.5" type="line"/>
      <point x="46.25" y="312" type="line"/>
      <point x="92.5" y="312" type="line"/>
      <point x="92.5" y="374.5" type="line"/>
      <point x="138.75" y="374.5" type="line"/>
      <point x="138.75" y="437" type="line"/>
      <point x="185" y="437" type="line"/>
      <point x="185" y="499.5" type="line"/>
      <point x="231.25" y="499.5" type="line"/>
      <point x="231.25" y="562" type="line"/>
      <point x="277.5" y="562" type="line"/>
      <point x="277.5" y="624.5" type="line"/>
      <point x="323.75" y="624.5" type="line"/>
      <point x="323.75" y="562" type="line"/>
      <point x="323.75" y="499.5" type="line"/>
      <point x="277.5" y="499.5" type="line"/>
      <point x="277.5" y="437" type="line"/>
      <point x="231.25" y="437" type="line"/>
      <point x="231.25" y="374.5" type="line"/>
      <point x="185" y="374.5" type="line"/>
      <point x="185" y="312" type="line"/>
      <point x="138.75" y="312" type="line"/>
    </contour>
    <contour>
      <point x="92.5" y="749.5" type="line"/>
      <point x="92.5" y="437" type="line"/>
      <point x="0" y="437" type="line"/>
      <point x="0" y="749.5" type="line"/>
    </contour>
  </outline>
</glyph>
<glyph name="Odieresis" format="2">
  <advance width="415"/>
  <unicode hex="00D6"/>
  <outline>
    <contour>
      <point x="46.25" y="62" type="line"/>
      <point x="46.25" y="124.5" type="line"/>
      <point x="0" y="124.5" type="line"/>
      <point x="0" y="562" type="line"/>
      <point x="46.25" y="562" type="line"/>
      <point x="46.25" y="624.5" type="line"/>
      <point x="277.5" y="624.5" type="line"/>
      <point x="277.5" y="562" type="line"/>
      <point x="323.75" y="562" type="line"/>
      <point x="323.75" y="499.5" type="line"/>
      <point x="323.75" y="124.5" type="line"/>
      <point x="277.5" y="124.5" type="line"/>
      <point x="277.5" y="62" type="line"/>
    </contour>
    <contour>
      <point x="92.5" y="124.5" type="line"/>
      <point x="231.25" y="124.5" type="line"/>
      <point x="231.25" y="562" type="line"/>
      <point x="92.5" y="562" type="line"/>
    </contour>
    <contour>
      <point x="46.25" y="749.5" type="line"/>
      <point x="92.5" y="749.5" type="line"/>
      <point x="92.5" y="687" type="line"/>
      <point x="46.25" y="687" type="line"/>
      <point x="0" y="687" type="line"/>
      <point x="0" y="749.5" type="line"/>
    </contour>
    <contour>
      <point x="277.5" y="749.5" type="line"/>
      <point x="323.75" y="749.5" type="line"/>
      <point x="323.75" y="687" type="line"/>
      <point x="277.5" y="687" type="line"/>
      <point x="231.25" y="687" type="line"/>
      <point x="231.25" y="749.5" type="line"/>
    </contour>
  </outline>
</glyph>
<glyph name="ccedilla" format="2">
  <advance width="415"/>
  <unicode hex="00E7"/>
  <outline>
    <contour>
      <point x="231.25" y="62" type="line"/>
      <point x="231.25" y="124.5" type="line"/>
      <point x="185" y="124.5" type="line"/>
      <point x="185" y="187" type="line"/>
      <point x="92.5" y="187" type="line"/>
      <point x="92.5" y="249.5" type="line"/>
      <point x="46.25" y="249.5" type="line"/>
      <point x="46.25" y="499.5" type="line"/>
      <point x="92.5" y="499.5" type="line"/>
      <point x="92.5" y="562" type="line"/>
      <point x="277.5" y="562" type="line"/>
      <point x="277.5" y="499.5" type="line"/>
      <point x="323.75" y="499.5" type="line"/>
      <point x="323.75" y="437" type="line"/>
      <point x="231.25" y="437" type="line"/>
      <point x="231.25" y="499.5" type="line"/>
      <point x="138.75" y="499.5" type="line"/>
      <point x="138.75" y="249.5" type="line"/>
      <point x="231.25" y="249.5" type="line"/>
      <point x="231.25" y="312" type="line"/>
      <point x="323.75" y="312" type="line"/>
      <point x="323.75" y="249.5" type="line"/>
      <point x="277.5" y="249.5" type="line"/>
      <point x="277.5" y="187" type="line"/>
      <point x="277.5" y="124.5" type="line"/>
      <point x="323.75" y="124.5" type="line"/>
      <point x="323.75" y="62" type="line"/>
      <point x="277.5" y="62" type="line"/>
      <point x="277.5" y="-0.5" type="line"/>
      <point x="231.25" y="-0.5" type="line"/>
      <point x="92.5" y="-0.5" type="line"/>
      <point x="92.5" y="62" type="line"/>
    </contour>
  </outline>
</glyph>
<glyph name="divide" format="2">
  <advance width="415"/>
  <unicode hex="00F7"/>
  <outline>
    <contour>
      <point x="323.75" y="374.5" type="line"/>
      <point x="323.75" y="312" type="line"/>
      <point x="46.25" y="312" type="line"/>
      <point x="46.25" y="374.5" type="line"/>
    </contour>
    <contour>
      <point x="138.75" y="562" type="line"/>
      <point x="231.25" y="562" type="line"/>
      <point x="231.25" y="437" type="line"/>
      <point x="138.75" y="437" type="line"/>
    </contour>
    <contour>
      <point x="138.75" y="249.5" type="line"/>
      <point x="231.25" y="249.5" type="line"/>
      <point x="231.25" y="124.5" type="line"/>
      <point x="138.75" y="124.5" type="line"/>
    </contour>
  </outline>
</glyph>
<glyph name="udieresis" format="2">
  <advance width="415"/>
  <unicode hex="00FC"/>
  <outline>
    <contour>
      <point x="92.5" y="124.5" type="line"/>
      <point x="185" y="124.5" type="line"/>
      <point x="185" y="62" type="line"/>
      <point x="46.25" y="62" type="line"/>
      <point x="46.25" y="124.5" type="line"/>
      <point x="0" y="124.5" type="line"/>
      <point x="0" y="499.5" type="line"/>
      <point x="92.5" y="499.5" type="line"/>
      <point x="92.5" y="437" type="line"/>
    </contour>
    <contour>
      <point x="185" y="499.5" type="line"/>
      <point x="277.5" y="499.5" type="line"/>
      <point x="277.5" y="124.5" type="line"/>
      <point x="323.75" y="124.5" type="line"/>
      <point x="323.75" y="62" type="line"/>
      <point x="231.25" y="62" type="line"/>
      <point x="231.25" y="124.5" type="line"/>
      <point x="185" y="124.5" type="line"/>
      <point x="185" y="187" type="line"/>
    </contour>
    <contour>
      <point x="46.25" y="687" type="line"/>
      <point x="92.5" y="687" type="line"/>
      <point x="92.5" y="624.5" type="line"/>
      <point x="46.25" y="624.5" type="line"/>
      <point x="0" y="624.5" type="line"/>
      <point x="0" y="687" type="line"/>
    </contour>
    <contour>
      <point x="231.25" y="624.5" type="line"/>
      <point x="185" y="624.5" type="line"/>
      <point x="185" y="687" type="line"/>
      <point x="231.25" y="687" type="line"/>
      <point x="277.5" y="687" type="line"/>
      <point x="277.5" y="624.5" type="line"/>
    </contour>
  </outline>
</glyph>
<glyph name="florin" format="2">
  <advance width="415"/>
  <unicode hex="0192"/>
  <outline>
    <contour>
      <point x="138.75" y="374.5" type="line"/>
      <point x="46.25" y="374.5" type="line"/>
      <point x="46.25" y="437" type="line"/>
      <point x="138.75" y="437" type="line"/>
      <point x="138.75" y="687" type="line"/>
      <point x="185" y="687" type="line"/>
      <point x="185" y="749.5" type="line"/>
      <point x="323.75" y="749.5" type="line"/>
      <point x="323.75" y="687" type="line"/>
      <point x="370" y="687" type="line"/>
      <point x="370" y="624.5" type="line"/>
      <point x="277.5" y="624.5" type="line"/>
      <point x="277.5" y="687" type="line"/>
      <point x="231.25" y="687" type="line"/>
      <point x="231.25" y="499.5" type="line"/>
      <point x="231.25" y="437" type="line"/>
      <point x="323.75" y="437" type="line"/>
      <point x="323.75" y="374.5" type="line"/>
      <point x="231.25" y="374.5" type="line"/>
      <point x="231.25" y="-0.5" type="line"/>
      <point x="185" y="-0.5" type="line"/>
      <point x="185" y="-63" type="line"/>
      <point x="46.25" y="-63" type="line"/>
      <point x="46.25" y="-0.5" type="line"/>
      <point x="0" y="-0.5" type="line"/>
      <point x="0" y="62" type="line"/>
      <point x="92.5" y="62" type="line"/>
      <point x="92.5" y="-0.5" type="line"/>
      <point x="138.75" y="-0.5" type="line"/>
    </contour>
  </outline>
</glyph>
<glyph name="Gamma" format="2">
  <advance width="415"/>
  <unicode hex="0393"/>
  <outline>
    <contour>
      <point x="0" y="62" type="line"/>
      <point x="0" y="687" type="line"/>
      <point x="323.75" y="687" type="line"/>
      <point x="323.75" y="499.5" type="line"/>
      <point x="231.25" y="499.5" type="line"/>
      <point x="231.25" y="562" type="line"/>
      <point x="231.25" y="624.5" type="line"/>
      <point x="92.5" y="624.5" type="line"/>
      <point x="92.5" y="499.5" type="line"/>
      <point x="92.5" y="62" type="line"/>
    </contour>
  </outline>
</glyph>
<glyph name="epsilon" format="2">
  <advance width="415"/>
  <unicode hex="03B5"/>
  <outline>
    <contour>
      <point x="138.75" y="187" type="line"/>
      <point x="185" y="187" type="line"/>
      <point x="185" y="124.5" type="line"/>
      <point x="231.25" y="124.5" type="line"/>
      <point x="277.5" y="124.5" type="line"/>
      <point x="277.5" y="62" type="line"/>
      <point x="231.25" y="62" type="line"/>
      <point x="138.75" y="62" type="line"/>
      <point x="138.75" y="124.5" type="line"/>
      <point x="92.5" y="124.5" type="line"/>
      <point x="92.5" y="187" type="line"/>
      <point x="46.25" y="187" type="line"/>
      <point x="46.25" y="312" type="line"/>
      <point x="46.25" y="562" type="line"/>
      <point x="92.5" y="562" type="line"/>
      <point x="92.5" y="624.5" type="line"/>
      <point x="138.75" y="624.5" type="line"/>
      <point x="138.75" y="687" type="line"/>
      <point x="231.25" y="687" type="line"/>
      <point x="277.5" y="687" type="line"/>
      <point x="277.5" y="624.5" type="line"/>
      <point x="231.25" y="624.5" type="line"/>
      <point x="185" y="624.5" type="line"/>
      <point x="185" y="562" type="line"/>
      <point x="138.75" y="562" type="line"/>
      <point x="138.75" y="437" type="line"/>
      <point x="277.5" y="437" type="line"/>
      <point x="277.5" y="374.5" type="line"/>
      <point x="138.75" y="374.5" type="line"/>
    </contour>
  </outline>
</glyph>
<glyph name="pi" format="2">
  <advance width="415"/>
  <unicode hex="03C0"/>
  <outline>
    <contour>
      <point x="277.5" y="62" type="line"/>
      <point x="185" y="62" type="line"/>
      <point x="185" y="499.5" type="line"/>
      <point x="138.75" y="499.5" type="line"/>
      <point x="138.75" y="62" type="line"/>
      <point x="46.25" y="62" type="line"/>
      <point x="46.25" y="499.5" type="line"/>
      <point x="0" y="499.5" type="line"/>
      <point x="0" y="562" type="line"/>
      <point x="323.75" y="562" type="line"/>
      <point x="323.75" y="499.5" type="line"/>
      <point x="277.5" y="499.5" type="line"/>
    </contour>
  </outline>
</glyph>
<glyph name="tau" format="2">
  <advance width="415"/>
  <unicode hex="03C4"/>
  <outline>
    <contour>
      <point x="138.75" y="499.5" type="line"/>
      <point x="92.5" y="499.5" type="line"/>
      <point x="92.5" y="437" type="line"/>
      <point x="0" y="437" type="line"/>
      <point x="0" y="499.5" type="line"/>
      <point x="46.25" y="499.5" type="line"/>
      <point x="46.25" y="562" type="line"/>
      <point x="185" y="562" type="line"/>
      <point x="185" y="499.5" type="line"/>
      <point x="231.25" y="499.5" type="line"/>
      <point x="231.25" y="562" type="line"/>
      <point x="323.75" y="562" type="line"/>
      <point x="323.75" y="499.5" type="line"/>
      <point x="277.5" y="499.5" type="line"/>
      <point x="277.5" y="437" type="line"/>
      <point x="231.25" y="437" type="line"/>
      <point x="231.25" y="62" type="line"/>
      <point x="138.75" y="62" type="line"/>
    </contour>
  </outline>
</glyph>
<glyph name="exclamdbl" format="2">
  <advance width="415"/>
  <unicode hex="203C"/>
  <outline>
    <contour>
      <point x="138.75" y="249.5" type="line"/>
      <point x="46.25" y="249.5" type="line"/>
      <point x="46.25" y="312" type="line"/>
      <point x="46.25" y="687" type="line"/>
      <point x="138.75" y="687" type="line"/>
      <point x="138.75" y="499.5" type="line"/>
    </contour>
    <contour>
      <point x="323.75" y="249.5" type="line"/>
      <point x="231.25" y="249.5" type="line"/>
      <point x="231.25" y="687" type="line"/>
      <point x="323.75" y="687" type="line"/>
    </contour>
    <contour>
      <point x="138.75" y="187" type="line"/>
      <point x="138.75" y="62" type="line"/>
      <point x="46.25" y="62" type="line"/>
      <point x="46.25" y="187" type="line"/>
    </contour>
    <contour>
      <point x="323.75" y="62" type="line"/>
      <point x="231.25" y="62" type="line"/>
      <point x="231.25" y="187" type="line"/>
      <point x="323.75" y="187" type="line"/>
    </contour>
  </outline>
</glyph>
<glyph name="uni207F" format="2">
  <advance width="415"/>
  <unicode hex="207F"/>
  <outline>
    <contour>
      <point x="138.75" y="374.5" type="line"/>
      <point x="46.25" y="374.5" type="line"/>
      <point x="46.25" y="687" type="line"/>
      <point x="0" y="687" type="line"/>
      <point x="0" y="749.5" type="line"/>
      <point x="92.5" y="749.5" type="line"/>
      <point x="92.5" y="687" type="line"/>
      <point x="138.75" y="687" type="line"/>
    </contour>
    <contour>
      <point x="185" y="374.5" type="line"/>
      <point x="185" y="687" type="line"/>
      <point x="138.75" y="687" type="line"/>
      <point x="138.75" y="749.5" type="line"/>
      <point x="231.25" y="749.5" type="line"/>
      <point x="231.25" y="687" type="line"/>
      <point x="277.5" y="687" type="line"/>
      <point x="277.5" y="374.5" type="line"/>
    </contour>
  </outline>
</glyph>
<glyph name="arrowleft" format="2">
  <advance width="415"/>
  <unicode hex="2190"/>
  <outline>
    <contour>
      <point x="323.75" y="374.5" type="line"/>
      <point x="323.75" y="312" type="line"/>
      <point x="138.75" y="312" type="line"/>
      <point x="138.75" y="249.5" type="line"/>
      <point x="185" y="249.5" type="line"/>
      <point x="185" y="187" type="line"/>
      <point x="92.5" y="187" type="line"/>
      <point x="92.5" y="249.5" type="line"/>
      <point x="46.25" y="249.5" type="line"/>
      <point x="46.25" y="312" type="line"/>
      <point x="0" y="312" type="line"/>
      <point x="0" y="374.5" type="line"/>
      <point x="46.25" y="374.5" type="line"/>
      <point x="46.25" y="437" type="line"/>
      <point x="92.5" y="437" type="line"/>
      <point x="92.5" y="499.5" type="line"/>
      <point x="185" y="499.5" type="line"/>
      <point x="185" y="437" type="line"/>
      <point x="138.75" y="437" type="line"/>
      <point x="138.75" y="374.5" type="line"/>
    </contour>
  </outline>
</glyph>
<glyph name="uni2219" format="2">
  <advance width="415"/>
  <unicode hex="2219"/>
  <outline>
    <contour>
      <point x="138.75" y="249.5" type="line"/>
      <point x="138.75" y="374.5" type="line"/>
      <point x="231.25" y="374.5" type="line"/>
      <point x="231.25" y="249.5" type="line"/>
    </contour>
  </outline>
</glyph>
<glyph name="infinity" format="2">
  <advance width="415"/>
  <unicode hex="221E"/>
  <outline>
    <contour>
      <point x="370" y="249.5" type="line"/>
      <point x="323.75" y="249.5" type="line"/>
      <point x="323.75" y="187" type="line"/>
      <point x="46.25" y="187" type="line"/>
      <point x="46.25" y="249.5" type="line"/>
      <point x="0" y="249.5" type="line"/>
      <point x="0" y="437" type="line"/>
      <point x="46.25" y="437" type="line"/>
      <point x="46.25" y="499.5" type="line"/>
      <point x="185" y="499.5" type="line"/>
      <point x="323.75" y="499.5" type="line"/>
      <point x="323.75" y="437" type="line"/>
      <point x="370" y="437" type="line"/>
    </contour>
    <contour>
      <point x="92.5" y="249.5" type="line"/>
      <point x="138.75" y="249.5" type="line"/>
      <point x="138.75" y="437" type="line"/>
      <point x="92.5" y="437" type="line"/>
    </contour>
    <contour>
      <point x="277.5" y="437" type="line"/>
      <point x="231.25" y="437" type="line"/>
      <point x="231.25" y="312" type="line"/>
      <point x="231.25" y="249.5" type="line"/>
      <point x="277.5" y="249.5" type="line"/>
      <point x="277.5" y="312" type="line"/>
    </contour>
  </outline>
</glyph>
<glyph name="orthogonal" format="2">
  <advance width="415"/>
  <unicode hex="221F"/>
  <outline>
    <contour>
      <point x="0" y="187" type="line"/>
      <point x="0" y="437" type="line"/>
      <point x="92.5" y="437" type="line"/>
      <point x="92.5" y="249.5" type="line"/>
      <point x="323.75" y="249.5" type="line"/>
      <point x="323.75" y="187" type="line"/>
    </contour>
  </outline>
</glyph>
<glyph name="revlogicalnot" format="2">
  <advance width="415"/>
  <unicode hex="2310"/>
  <outline>
    <contour>
      <point x="323.75" y="437" type="line"/>
      <point x="323.75" y="374.5" type="line"/>
      <point x="92.5" y="374.5" type="line"/>
      <point x="92.5" y="312" type="line"/>
      <point x="92.5" y="124.5" type="line"/>
      <point x="0" y="124.5" type="line"/>
      <point x="0" y="312" type="line"/>
      <point x="0" y="437" type="line"/>
      <point x="46.25" y="437" type="line"/>
    </contour>
  </outline>
</glyph>
<glyph name="integralbt" format="2">
  <advance width="415"/>
  <unicode hex="2321"/>
  <outline>
    <contour>
      <point x="138.75" y="812" type="line"/>
      <point x="231.25" y="812" type="line"/>
      <point x="231.25" y="124.5" type="line"/>
      <point x="185" y="124.5" type="line"/>
      <point x="185" y="62" type="line"/>
      <point x="46.25" y="62" type="line"/>
      <point x="46.25" y="124.5" type="line"/>
      <point x="0" y="124.5" type="line"/>
      <point x="0" y="312" type="line"/>
      <point x="92.5" y="312" type="line"/>
      <point x="92.5" y="124.5" type="line"/>
      <point x="138.75" y="124.5" type="line"/>
    </contour>
  </outline>
</glyph>
<glyph name="SF110000" format="2">
  <advance width="415"/>
  <unicode hex="2502"/>
  <outline>
    <contour>
      <point x="138.75" y="812" type="line"/>
      <point x="231.25" y="812" type="line"/>
      <point x="231.25" y="-188" type="line"/>
      <point x="138.75" y="-188" type="line"/>
    </contour>
  </outline>
</glyph>
<glyph name="SF010000" format="2">
  <advance width="415"/>
  <unicode hex="250C"/>
  <outline>
    <contour>
      <point x="138.75" y="374.5" type="line"/>
      <point x="416.25" y="374.5" type="line"/>
      <point x="416.25" y="312" type="line"/>
      <point x="231.25" y="312" type="line"/>
      <point x="231.25" y="-188" type="line"/>
      <point x="138.75" y="-188" type="line"/>
    </contour>
  </outline>
</glyph>
<glyph name="SF030000" format="2">
  <advance width="415"/>
  <unicode hex="2510"/>
  <outline>
    <contour>
      <point x="138.75" y="312" type="line"/>
      <point x="0" y="312" type="line"/>
      <point x="0" y="374.5" type="line"/>
      <point x="231.25" y="374.5" type="line"/>
      <point x="231.25" y="-188" type="line"/>
      <point x="138.75" y="-188" type="line"/>
    </contour>
  </outline>
</glyph>
<glyph name="SF020000" format="2">
  <advance width="415"/>
  <unicode hex="2514"/>
  <outline>
    <contour>
      <point x="231.25" y="812" type="line"/>
      <point x="231.25" y="374.5" type="line"/>
      <point x="416.25" y="374.5" type="line"/>
      <point x="416.25" y="312" type="line"/>
      <point x="138.75" y="312" type="line"/>
      <point x="138.75" y="812" type="line"/>
    </contour>
  </outline>
</glyph>
<glyph name="SF040000" format="2">
  <advance width="415"/>
  <unicode hex="2518"/>
  <outline>
    <contour>
      <point x="231.25" y="812" type="line"/>
      <point x="231.25" y="312" type="line"/>
      <point x="0" y="312" type="line"/>
      <point x="0" y="374.5" type="line"/>
      <point x="138.75" y="374.5" type="line"/>
      <point x="138.75" y="812" type="line"/>
    </contour>
  </outline>
</glyph>
<glyph name="SF080000" format="2">
  <advance width="415"/>
  <unicode hex="251C"/>
  <outline>
    <contour>
      <point x="138.75" y="812" type="line"/>
      <point x="231.25" y="812" type="line"/>
      <point x="231.25" y="374.5" type="line"/>
      <point x="416.25" y="374.5" type="line"/>
      <point x="416.25" y="312" type="line"/>
      <point x="231.25" y="312" type="line"/>
      <point x="231.25" y="-188" type="line"/>
      <point x="138.75" y="-188" type="line"/>
    </contour>
  </outline>
</glyph>
<glyph name="SF090000" format="2">
  <advance width="415"/>
  <unicode hex="2524"/>
  <outline>
    <contour>
      <point x="138.75" y="312" type="line"/>
      <point x="0" y="312" type="line"/>
      <point x="0" y="374.5" type="line"/>
      <point x="138.75" y="374.5" type="line"/>
      <point x="138.75" y="812" type="line"/>
      <point x="231.25" y="812" type="line"/>
      <point x="231.25" y="312" type="line"/>
      <point x="231.25" y="-188" type="line"/>
      <point x="138.75" y="-188" type="line"/>
    </contour>
  </outline>
</glyph>
<glyph name="SF060000" format="2">
  <advance width="415"/>
  <unicode hex="252C"/>
  <outline>
    <contour>
      <point x="138.75" y="187" type="line"/>
      <point x="138.75" y="312" type="line"/>
      <point x="0" y="312" type="line"/>
      <point x="0" y="374.5" type="line"/>
      <point x="416.25" y="374.5" type="line"/>
      <point x="416.25" y="312" type="line"/>
      <point x="231.25" y="312" type="line"/>
      <point x="231.25" y="-188" type="line"/>
      <point x="138.75" y="-188" type="line"/>
    </contour>
  </outline>
</glyph>
<glyph name="SF070000" format="2">
  <advance width="415"/>
  <unicode hex="2534"/>
  <outline>
    <contour>
      <point x="138.75" y="812" type="line"/>
      <point x="231.25" y="812" type="line"/>
      <point x="231.25" y="374.5" type="line"/>
      <point x="416.25" y="374.5" type="line"/>
      <point x="416.25" y="312" type="line"/>
      <point x="0" y="312" type="line"/>
      <point x="0" y="374.5" type="line"/>
      <point x="138.75" y="374.5" type="line"/>
      <point x="138.75" y="687" type="line"/>
    </contour>
  </outline>
</glyph>
<glyph name="SF050000" format="2">
  <advance width="415"/>
  <unicode hex="253C"/>
  <outline>
    <contour>
      <point x="138.75" y="312" type="line"/>
      <point x="0" y="312" type="line"/>
      <point x="0" y="374.5" type="line"/>
      <point x="138.75" y="374.5" type="line"/>
      <point x="138.75" y="812" type="line"/>
      <point x="231.25" y="812" type="line"/>
      <point x="231.25" y="374.5" type="line"/>
      <point x="416.25" y="374.5" type="line"/>
      <point x="416.25" y="312" type="line"/>
      <point x="231.25" y="312" type="line"/>
      <point x="231.25" y="-188" type="line"/>
      <point x="138.75" y="-188" type="line"/>
      <point x="138.75" y="-0.5" type="line"/>
    </contour>
  </outline>
</glyph>
<glyph name="SF430000" format="2">
  <advance width="415"/>
  <unicode hex="2550"/>
  <outline>
    <contour>
      <point x="416.25" y="499.5" type="line"/>
      <point x="416.25" y="437" type="line"/>
      <point x="0" y="437" type="line"/>
      <point x="0" y="499.5" type="line"/>
    </contour>
    <contour>
      <point x="416.25" y="374.5" type="line"/>
      <point x="416.25" y="312" type="line"/>
      <point x="0" y="312" type="line"/>
      <point x="0" y="374.5" type="line"/>
    </contour>
  </outline>
</glyph>
<glyph name="SF240000" format="2">
  <advance width="415"/>
  <unicode hex="2551"/>
  <outline>
    <contour>
      <point x="92.5" y="812" type="line"/>
      <point x="185" y="812" type="line"/>
      <point x="185" y="-188" type="line"/>
      <point x="92.5" y="-188" type="line"/>
    </contour>
    <contour>
      <point x="231.25" y="812" type="line"/>
      <point x="323.75" y="812" type="line"/>
      <point x="323.75" y="124.5" type="line"/>
      <point x="323.75" y="-188" type="line"/>
      <point x="231.25" y="-188" type="line"/>
      <point x="231.25" y="437" type="line"/>
    </contour>
  </outline>
</glyph>
<glyph name="SF520000" format="2">
  <advance width="415"/>
  <unicode hex="2553"/>
  <outline>
    <contour>
      <point x="323.75" y="-188" type="line"/>
      <point x="231.25" y="-188" type="line"/>
      <point x="231.25" y="312" type="line"/>
      <point x="185" y="312" type="line"/>
      <point x="185" y="-188" type="line"/>
      <point x="92.5" y="-188" type="line"/>
      <point x="92.5" y="374.5" type="line"/>
      <point x="416.25" y="374.5" type="line"/>
      <point x="416.25" y="312" type="line"/>
      <point x="323.75" y="312" type="line"/>
    </contour>
  </outline>
</glyph>
<glyph name="SF220000" format="2">
  <advance width="415"/>
  <unicode hex="2555"/>
  <outline>
    <contour>
      <point x="138.75" y="312" type="line"/>
      <point x="0" y="312" type="line"/>
      <point x="0" y="374.5" type="line"/>
      <point x="138.75" y="374.5" type="line"/>
      <point x="138.75" y="437" type="line"/>
      <point x="0" y="437" type="line"/>
      <point x="0" y="499.5" type="line"/>
      <point x="231.25" y="499.5" type="line"/>
      <point x="231.25" y="187" type="line"/>
      <point x="231.25" y="-125.5" type="line"/>
      <point x="231.25" y="-188" type="line"/>
      <point x="138.75" y="-188" type="line"/>
      <point x="138.75" y="-125.5" type="line"/>
    </contour>
  </outline>
</glyph>
<glyph name="SF250000" format="2">
  <advance width="415"/>
  <unicode hex="2557"/>
  <outline>
    <contour>
      <point x="323.75" y="-188" type="line"/>
      <point x="231.25" y="-188" type="line"/>
      <point x="231.25" y="437" type="line"/>
      <point x="138.75" y="437" type="line"/>
      <point x="0" y="437" type="line"/>
      <point x="0" y="499.5" type="line"/>
      <point x="185" y="499.5" type="line"/>
      <point x="323.75" y="499.5" type="line"/>
      <point x="323.75" y="437" type="line"/>
    </contour>
    <contour>
      <point x="185" y="-188" type="line"/>
      <point x="92.5" y="-188" type="line"/>
      <point x="92.5" y="62" type="line"/>
      <point x="92.5" y="312" type="line"/>
      <point x="0" y="312" type="line"/>
      <point x="0" y="374.5" type="line"/>
      <point x="185" y="374.5" type="line"/>
    </contour>
  </outline>
</glyph>
<glyph name="SF490000" format="2">
  <advance width="415"/>
  <unicode hex="2559"/>
  <outline>
    <contour>
      <point x="231.25" y="812" type="line"/>
      <point x="323.75" y="812" type="line"/>
      <point x="323.75" y="374.5" type="line"/>
      <point x="416.25" y="374.5" type="line"/>
      <point x="416.25" y="312" type="line"/>
      <point x="92.5" y="312" type="line"/>
      <point x="92.5" y="437" type="line"/>
      <point x="92.5" y="812" type="line"/>
      <point x="185" y="812" type="line"/>
      <point x="185" y="374.5" type="line"/>
      <point x="231.25" y="374.5" type="line"/>
    </contour>
  </outline>
</glyph>
<glyph name="SF280000" format="2">
  <advance width="415"/>
  <unicode hex="255B"/>
  <outline>
    <contour>
      <point x="138.75" y="437" type="line"/>
      <point x="0" y="437" type="line"/>
      <point x="0" y="499.5" type="line"/>
      <point x="138.75" y="499.5" type="line"/>
      <point x="138.75" y="812" type="line"/>
      <point x="231.25" y="812" type="line"/>
      <point x="231.25" y="562" type="line"/>
      <point x="231.25" y="312" type="line"/>
      <point x="0" y="312" type="line"/>
      <point x="0" y="374.5" type="line"/>
      <point x="138.75" y="374.5" type="line"/>
    </contour>
  </outline>
</glyph>
<glyph name="SF270000" format="2">
  <advance width="415"/>
  <unicode hex="255C"/>
  <outline>
    <contour>
      <point x="231.25" y="812" type="line"/>
      <point x="323.75" y="812" type="line"/>
      <point x="323.75" y="312" type="line"/>
      <point x="0" y="312" type="line"/>
      <point x="0" y="374.5" type="line"/>
      <point x="92.5" y="374.5" type="line"/>
      <point x="92.5" y="812" type="line"/>
      <point x="185" y="812" type="line"/>
      <point x="185" y="374.5" type="line"/>
      <point x="231.25" y="374.5" type="line"/>
    </contour>
  </outline>
</glyph>
<glyph name="SF260000" format="2">
  <advance width="415"/>
  <unicode hex="255D"/>
  <outline>
    <contour>
      <point x="231.25" y="812" type="line"/>
      <point x="323.75" y="812" type="line"/>
      <point x="323.75" y="562" type="line"/>
      <point x="323.75" y="312" type="line"/>
      <point x="0" y="312" type="line"/>
      <point x="0" y="374.5" type="line"/>
      <point x="231.25" y="374.5" type="line"/>
    </contour>
    <contour>
      <point x="0" y="437" type="line"/>
      <point x="0" y="499.5" type="line"/>
      <point x="92.5" y="499.5" type="line"/>
      <point x="92.5" y="812" type="line"/>
      <point x="185" y="812" type="line"/>
      <point x="185" y="687" type="line"/>
      <point x="185" y="437" type="line"/>
    </contour>
  </outline>
</glyph>
<glyph name="SF370000" format="2">
  <advance width="415"/>
  <unicode hex="255F"/>
  <outline>
    <contour>
      <point x="231.25" y="812" type="line"/>
      <point x="323.75" y="812" type="line"/>
      <point x="323.75" y="374.5" type="line"/>
      <point x="416.25" y="374.5" type="line"/>
      <point x="416.25" y="312" type="line"/>
      <point x="323.75" y="312" type="line"/>
      <point x="323.75" y="-188" type="line"/>
      <point x="231.25" y="-188" type="line"/>
      <point x="231.25" y="187" type="line"/>
    </contour>
    <contour>
      <point x="92.5" y="812" type="line"/>
      <point x="185" y="812" type="line"/>
      <point x="185" y="-188" type="line"/>
      <point x="92.5" y="-188" type="line"/>
    </contour>
  </outline>
</glyph>
<glyph name="SF420000" format="2">
  <advance width="415"/>
  <unicode hex="2560"/>
  <outline>
    <contour>
      <point x="92.5" y="812" type="line"/>
      <point x="185" y="812" type="line"/>
      <point x="185" y="-188" type="line"/>
      <point x="92.5" y="-188" type="line"/>
    </contour>
    <contour>
      <point x="323.75" y="312" type="line"/>
      <point x="323.75" y="-188" type="line"/>
      <point x="231.25" y="-188" type="line"/>
      <point x="231.25" y="374.5" type="line"/>
      <point x="416.25" y="374.5" type="line"/>
      <point x="416.25" y="312" type="line"/>
    </contour>
    <contour>
      <point x="231.25" y="812" type="line"/>
      <point x="323.75" y="812" type="line"/>
      <point x="323.75" y="499.5" type="line"/>
      <point x="416.25" y="499.5" type="line"/>
      <point x="416.25" y="437" type="line"/>
      <point x="231.25" y="437" type="line"/>
    </contour>
  </outline>
</glyph>
<glyph name="SF230000" format="2">
  <advance width="415"/>
  <unicode hex="2563"/>
  <outline>
    <contour>
      <point x="231.25" y="812" type="line"/>
      <point x="323.75" y="812" type="line"/>
      <point x="323.75" y="124.5" type="line"/>
      <point x="323.75" y="-188" type="line"/>
      <point x="231.25" y="-188" type="line"/>
      <point x="231.25" y="437" type="line"/>
    </contour>
    <contour>
      <point x="185" y="-188" type="line"/>
      <point x="92.5" y="-188" type="line"/>
      <point x="92.5" y="62" type="line"/>
      <point x="92.5" y="312" type="line"/>
      <point x="0" y="312" type="line"/>
      <point x="0" y="374.5" type="line"/>
      <point x="185" y="374.5" type="line"/>
    </contour>
    <contour>
      <point x="0" y="437" type="line"/>
      <point x="0" y="499.5" type="line"/>
      <point x="92.5" y="499.5" type="line"/>
      <point x="92.5" y="812" type="line"/>
      <point x="185" y="812" type="line"/>
      <point x="185" y="687" type="line"/>
      <point x="185" y="437" type="line"/>
    </contour>
  </outline>
</glyph>
<glyph name="SF470000" format="2">
  <advance width="415"/>
  <unicode hex="2564"/>
  <outline>
    <contour>
      <point x="138.75" y="187" type="line"/>
      <point x="138.75" y="312" type="line"/>
      <point x="0" y="312" type="line"/>
      <point x="0" y="374.5" type="line"/>
      <point x="416.25" y="374.5" type="line"/>
      <point x="416.25" y="312" type="line"/>
      <point x="231.25" y="312" type="line"/>
      <point x="231.25" y="-188" type="line"/>
      <point x="138.75" y="-188" type="line"/>
    </contour>
    <contour>
      <point x="416.25" y="499.5" type="line"/>
      <point x="416.25" y="437" type="line"/>
      <point x="0" y="437" type="line"/>
      <point x="0" y="499.5" type="line"/>
    </contour>
  </outline>
</glyph>
<glyph name="SF410000" format="2">
  <advance width="415"/>
  <unicode hex="2566"/>
  <outline>
    <contour>
      <point x="185" y="-188" type="line"/>
      <point x="92.5" y="-188" type="line"/>
      <point x="92.5" y="62" type="line"/>
      <point x="92.5" y="312" type="line"/>
      <point x="0" y="312" type="line"/>
      <point x="0" y="374.5" type="line"/>
      <point x="185" y="374.5" type="line"/>
    </contour>
    <contour>
      <point x="323.75" y="312" type="line"/>
      <point x="323.75" y="-188" type="line"/>
      <point x="231.25" y="-188" type="line"/>
      <point x="231.25" y="374.5" type="line"/>
      <point x="416.25" y="374.5" type="line"/>
      <point x="416.25" y="312" type="line"/>
    </contour>
    <contour>
      <point x="416.25" y="499.5" type="line"/>
      <point x="416.25" y="437" type="line"/>
      <point x="0" y="437" type="line"/>
      <point x="0" y="499.5" type="line"/>
    </contour>
  </outline>
</glyph>
<glyph name="SF460000" format="2">
  <advance width="415"/>
  <unicode hex="2568"/>
  <outline>
    <contour>
      <point x="231.25" y="812" type="line"/>
      <point x="323.75" y="812" type="line"/>
      <point x="323.75" y="374.5" type="line"/>
      <point x="416.25" y="374.5" type="line"/>
      <point x="416.25" y="312" type="line"/>
      <point x="0" y="312" type="line"/>
      <point x="0" y="374.5" type="line"/>
      <point x="92.5" y="374.5" type="line"/>
      <point x="92.5" y="812" type="line"/>
      <point x="185" y="812" type="line"/>
      <point x="185" y="374.5" type="line"/>
      <point x="231.25" y="374.5" type="line"/>
    </contour>
  </outline>
</glyph>
<glyph name="SF540000" format="2">
  <advance width="415"/>
  <unicode hex="256A"/>
  <outline>
    <contour>
      <point x="138.75" y="312" type="line"/>
      <point x="0" y="312" type="line"/>
      <point x="0" y="374.5" type="line"/>
      <point x="138.75" y="374.5" type="line"/>
      <point x="138.75" y="437" type="line"/>
      <point x="46.25" y="437" type="line"/>
      <point x="0" y="437" type="line"/>
      <point x="0" y="499.5" type="line"/>
      <point x="46.25" y="499.5" type="line"/>
      <point x="138.75" y="499.5" type="line"/>
      <point x="138.75" y="812" type="line"/>
      <point x="231.25" y="812" type="line"/>
      <point x="231.25" y="499.5" type="line"/>
      <point x="416.25" y="499.5" type="line"/>
      <point x="416.25" y="437" type="line"/>
      <point x="231.25" y="437" type="line"/>
      <point x="231.25" y="374.5" type="line"/>
      <point x="416.25" y="374.5" type="line"/>
      <point x="416.25" y="312" type="line"/>
      <point x="231.25" y="312" type="line"/>
      <point x="231.25" y="-188" type="line"/>
      <point x="185" y="-188" type="line"/>
      <point x="138.75" y="-188" type="line"/>
      <point x="138.75" y="-63" type="line"/>
    </contour>
  </outline>
</glyph>
<glyph name="upblock" format="2">
  <advance width="415"/>
  <unicode hex="2580"/>
  <outline>
    <contour>
      <point x="0" y="374.5" type="line"/>
      <point x="0" y="812" type="line"/>
      <point x="416.25" y="812" type="line"/>
      <point x="416.25" y="374.5" type="line"/>
    </contour>
  </outline>
</glyph>
<glyph name="dnblock" format="2">
  <advance width="415"/>
  <unicode hex="2584"/>
  <outline>
    <contour>
      <point x="0" y="374.5" type="line"/>
      <point x="416.25" y="374.5" type="line"/>
      <point x="416.25" y="-188" type="line"/>
      <point x="0" y="-188" type="line"/>
    </contour>
  </outline>
</glyph>
<glyph name="block" format="2">
  <advance width="415"/>
  <unicode hex="2588"/>
  <outline>
    <contour>
      <point x="0" y="812" type="line"/>
      <point x="416.25" y="812" type="line"/>
      <point x="416.25" y="-188" type="line"/>
      <point x="0" y="-188" type="line"/>
    </contour>
  </outline>
</glyph>
<glyph name="lfblock" format="2">
  <advance width="415"/>
  <unicode hex="258C"/>
  <outline>
    <contour>
      <point x="0" y="812" type="line"/>
      <point x="185" y="812" type="line"/>
      <point x="185" y="-188" type="line"/>
      <point x="0" y="-188" type="line"/>
    </contour>
  </outline>
</glyph>
<glyph name="rtblock" format="2">
  <advance width="415"/>
  <unicode hex="2590"/>
  <outline>
    <contour>
      <point x="416.25" y="-188" type="line"/>
      <point x="185" y="-188" type="line"/>
      <point x="185" y="249.5" type="line"/>
      <point x="185" y="812" type="line"/>
      <point x="416.25" y="812" type="line"/>
      <point x="416.25" y="687" type="line"/>
    </contour>
  </outline>
</glyph>
<glyph name="filledbox" format="2">
  <advance width="415"/>
  <unicode hex="25A0"/>
  <outline>
    <contour>
      <point x="46.25" y="124.5" type="line"/>
      <point x="46.25" y="562" type="line"/>
      <point x="277.5" y="562" type="line"/>
      <point x="277.5" y="124.5" type="line"/>
    </contour>
  </outline>
</glyph>
<glyph name="filledrect" format="2">
  <advance width="415"/>
  <unicode hex="25AC"/>
  <outline>
    <contour>
      <point x="323.75" y="312" type="line"/>
      <point x="323.75" y="62" type="line"/>
      <point x="277.5" y="62" type="line"/>
      <point x="0" y="62" type="line"/>
      <point x="0" y="312" type="line"/>
      <point x="138.75" y="312" type="line"/>
    </contour>
  </outline>
</glyph>
<glyph name="triagdn" format="2">
  <advance width="415"/>
  <unicode hex="25BC"/>
  <outline>
    <contour>
      <point x="185" y="124.5" type="line"/>
      <point x="138.75" y="124.5" type="line"/>
      <point x="138.75" y="187" type="line"/>
      <point x="92.5" y="187" type="line"/>
      <point x="92.5" y="312" type="line"/>
      <point x="46.25" y="312" type="line"/>
      <point x="46.25" y="437" type="line"/>
      <point x="0" y="437" type="line"/>
      <point x="0" y="562" type="line"/>
      <point x="46.25" y="562" type="line"/>
      <point x="323.75" y="562" type="line"/>
      <point x="323.75" y="437" type="line"/>
      <point x="277.5" y="437" type="line"/>
      <point x="277.5" y="312" type="line"/>
      <point x="231.25" y="312" type="line"/>
      <point x="231.25" y="187" type="line"/>
      <point x="185" y="187" type="line"/>
    </contour>
  </outline>
</glyph>
<glyph name="invbullet" format="2">
  <advance width="415"/>
  <unicode hex="25D8"/>
  <outline>
    <contour>
      <point x="0" y="812" type="line"/>
      <point x="370" y="812" type="line"/>
      <point x="370" y="-188" type="line"/>
      <point x="0" y="-188" type="line"/>
    </contour>
    <contour>
      <point x="138.75" y="374.5" type="line"/>
      <point x="92.5" y="374.5" type="line"/>
      <point x="92.5" y="249.5" type="line"/>
      <point x="138.75" y="249.5" type="line"/>
      <point x="138.75" y="187" type="line"/>
      <point x="231.25" y="187" type="line"/>
      <point x="231.25" y="249.5" type="line"/>
      <point x="277.5" y="249.5" type="line"/>
      <point x="277.5" y="374.5" type="line"/>
      <point x="231.25" y="374.5" type="line"/>
      <point x="231.25" y="437" type="line"/>
      <point x="185" y="437" type="line"/>
      <point x="138.75" y="437" type="line"/>
    </contour>
  </outline>
</glyph>
<glyph name="club" format="2">
  <advance width="415"/>
  <unicode hex="2663"/>
  <outline>
    <contour>
      <point x="138.75" y="249.5" type="line"/>
      <point x="0" y="249.5" type="line"/>
      <point x="0" y="374.5" type="line"/>
      <point x="0" y="437" type="line"/>
      <point x="92.5" y="437" type="line"/>
      <point x="92.5" y="499.5" type="line"/>
      <point x="92.5" y="562" type="line"/>
      <point x="138.75" y="562" type="line"/>
      <point x="138.75" y="624.5" type="line"/>
      <point x="231.25" y="624.5" type="line"/>
      <point x="231.25" y="562" type="line"/>
      <point x="277.5" y="562" type="line"/>
      <point x="277.5" y="437" type="line"/>
      <point x="370" y="437" type="line"/>
      <point x="370" y="249.5" type="line"/>
      <point x="323.75" y="249.5" type="line"/>
      <point x="231.25" y="249.5" type="line"/>
      <point x="231.25" y="312" type="line"/>
      <point x="231.25" y="437" type="line"/>
      <point x="138.75" y="437" type="line"/>
      <point x="138.75" y="374.5" type="line"/>
    </contour>
    <contour>
      <point x="138.75" y="249.5" type="line"/>
      <point x="231.25" y="249.5" type="line"/>
      <point x="231.25" y="124.5" type="line"/>
      <point x="277.5" y="124.5" type="line"/>
      <point x="277.5" y="62" type="line"/>
      <point x="92.5" y="62" type="line"/>
      <point x="92.5" y="124.5" type="line"/>
      <point x="138.75" y="124.5" type="line"/>
    </contour>
  </outline>
</glyph>
<glyph name="musicalnote" format="2">
  <advance width="415"/>
  <unicode hex="266A"/>
  <outline>
    <contour>
      <point x="0" y="62" type="line"/>
      <point x="0" y="187" type="line"/>
      <point x="46.25" y="187" type="line"/>
      <point x="46.25" y="249.5" type="line"/>
      <point x="92.5" y="249.5" type="line"/>
      <point x="92.5" y="312" type="line"/>
      <point x="92.5" y="687" type="line"/>
      <point x="370" y="687" type="line"/>
      <point x="370" y="562" type="line"/>
      <point x="370" y="499.5" type="line"/>
      <point x="185" y="499.5" type="line"/>
      <point x="185" y="124.5" type="line"/>
      <point x="138.75" y="124.5" type="line"/>
      <point x="138.75" y="62" type="line"/>
      <point x="46.25" y="62" type="line"/>
    </contour>
    <contour>
      <point x="231.25" y="624.5" type="line"/>
      <point x="185" y="624.5" type="line"/>
      <point x="185" y="562" type="line"/>
      <point x="231.25" y="562" type="line"/>
      <point x="277.5" y="562" type="line"/>
      <point x="277.5" y="624.5" type="line"/>
    </contour>
  </outline>
</glyph>
